Coordinates
version=1
nRows=14
nColumns=40
inDegrees=yes

Units are S.I. units (second, meters, Newtons, ...)
Angles are in degrees.

endheader
time	pelvis_tilt	pelvis_list	pelvis_rotation	pelvis_tx	pelvis_ty	pelvis_tz	hip_flexion_r	hip_adduction_r	hip_rotation_r	knee_angle_r	knee_angle_r_beta	ankle_angle_r	subtalar_angle_r	mtp_angle_r	hip_flexion_l	hip_adduction_l	hip_rotation_l	knee_angle_l	knee_angle_l_beta	ankle_angle_l	subtalar_angle_l	mtp_angle_l	lumbar_extension	lumbar_bending	lumbar_rotation	arm_flex_r	arm_add_r	arm_rot_r	elbow_flex_r	pro_sup_r	wrist_flex_r	wrist_dev_r	arm_flex_l	arm_add_l	arm_rot_l	elbow_flex_l	pro_sup_l	wrist_flex_l	wrist_dev_l
      6.50828571	     -1.92752729	     -5.01002137	      1.93347708	      0.95494998	      0.92567947	      0.52760369	     11.55490448	      5.02841204	    -12.14264911	     22.18637784	     22.18637784	     14.21622863	     -4.62569563	     -2.26433368	     24.15307756	    -13.77747634	     -1.54846320	     54.62621942	     54.62621942	     17.85792358	    -19.45965173	     20.87878325	     -9.76773127	      6.39797126	      2.22538173	     17.67027548	    -16.27987181	    -17.14993834	     23.19080112	     47.25688128	      0.00000000	      0.00000000	     11.80328486	     -9.07104132	     -3.30468860	     32.73329807	     46.45820734	      0.00000000	      0.00000000
      6.52657143	     -1.89976040	     -4.76095909	      2.43647887	      0.95281606	      0.92540443	      0.52751915	     11.41356981	      4.81177205	    -12.04097971	     22.42602387	     22.42602387	     14.50684802	     -5.44373331	     -2.20826680	     25.01160652	    -13.21773960	     -1.37896971	     52.36286882	     52.36286882	     17.92680206	    -19.44113029	     20.91645803	     -9.88982238	      5.91642657	      1.63309596	     20.28580838	    -15.70735507	    -17.22291763	     24.60484353	     47.21956690	      0.00000000	      0.00000000	      9.18044181	     -8.67723654	     -2.97305842	     30.46000440	     46.36634293	      0.00000000	      0.00000000
      6.54485714	     -1.98218549	     -4.63372528	      2.98566304	      0.95044089	      0.92509665	      0.52703828	     11.31258440	      4.68798416	    -12.11615699	     22.47870360	     22.47870360	     14.73190858	     -6.09157736	     -2.11733800	     25.92961375	    -12.58688067	     -0.93197418	     49.76911476	     49.76911476	     17.70249018	    -19.41482987	     20.70865721	     -9.97877898	      5.66877137	      1.43056465	     22.66648986	    -15.40403326	    -17.27830449	     25.87759663	     47.18312136	      0.00000000	      0.00000000	      6.82349775	     -8.05416796	     -2.63818557	     28.35340724	     46.27512463	      0.00000000	      0.00000000
      6.56314286	     -2.15196973	     -4.52405794	      3.52685160	      0.94795844	      0.92484911	      0.52631861	     11.22729383	      4.55643841	    -12.26423758	     22.38701358	     22.38701358	     14.94923262	     -6.49572290	     -2.02120064	     26.78227732	    -11.86068649	     -0.39337550	     46.82093960	     46.82093960	     16.86834748	    -19.33670328	     19.65883742	     -9.94256918	      5.40223726	      1.45784716	     24.85968377	    -15.29033431	    -17.30996174	     27.36417867	     47.12333468	      0.00000000	      0.00000000	      4.73304539	     -7.36608929	     -2.21147289	     26.13334585	     46.16820065	      0.00000000	      0.00000000
      6.58142857	     -2.30793594	     -4.27546443	      4.02462375	      0.94548501	      0.92492080	      0.52529426	     11.05094692	      4.25030421	    -12.44884719	     22.19148737	     22.19148737	     15.12062314	     -6.74401136	     -2.00905183	     27.39085211	    -10.86020819	      0.24314377	     43.58035961	     43.58035961	     16.01505809	    -19.20038965	     19.32588651	     -9.95102303	      4.95652735	      1.62657923	     26.98964321	    -15.28163804	    -17.25567080	     28.93384353	     47.06160714	      0.00000000	      0.00000000	      2.51842305	     -6.79062638	     -1.99961435	     24.86417338	     46.09082900	      0.00000000	      0.00000000
      6.59971429	     -2.52764482	     -4.16730632	      4.53854601	      0.94302719	      0.92495332	      0.52409951	     10.85517598	      4.06793470	    -12.78426472	     21.82555785	     21.82555785	     15.22013955	     -6.73628891	     -2.16311471	     27.86663194	    -10.01523240	      0.87027467	     39.98284662	     39.98284662	     13.65721542	    -19.00354546	     15.44871951	     -9.90035476	      4.69205809	      1.80834659	     28.47979361	    -15.44148122	    -16.40829307	     32.40763776	     46.81825796	      0.00000000	      0.00000000	      0.38196746	     -6.32400871	     -1.26486649	     23.69265816	     45.90506647	      0.00000000	      0.00000000
      6.61800000	     -2.83314059	     -3.95225732	      5.01711364	      0.94058252	      0.92520245	      0.52262862	     10.66035018	      3.77263386	    -13.05396027	     21.31026477	     21.31026477	     15.29001421	     -6.75108316	     -2.14058946	     28.37233808	     -8.92443970	      1.75746245	     36.55202787	     36.55202787	     12.55747388	    -18.54108021	     15.50600785	     -9.72593502	      4.27398640	      1.96677086	     30.61255294	    -15.50472972	    -16.24617593	     34.05556216	     46.74932056	      0.00000000	      0.00000000	     -1.69015411	     -5.92390316	     -1.09353053	     22.84252234	     45.83240897	      0.00000000	      0.00000000
      6.63628571	     -3.05479821	     -3.89652367	      5.50418711	      0.93837414	      0.92545679	      0.52105376	     10.30811188	      3.62252361	    -13.52327353	     20.69123398	     20.69123398	     15.22927830	     -6.44973630	     -2.68431601	     28.50899731	     -8.17051870	      2.35611623	     32.72147789	     32.72147789	      9.43621219	    -17.85170060	     10.12409309	     -9.67472081	      4.08635489	      2.04332115	     31.75096527	    -15.93765507	    -14.13347305	     38.81950178	     46.37716271	      0.00000000	      0.00000000	     -3.97717191	     -5.80400857	      0.41854961	     22.81086114	     45.48278040	      0.00000000	      0.00000000
      6.65457143	     -3.43037430	     -3.78048674	      5.93112720	      0.93620136	      0.92579880	      0.51938855	     10.04309600	      3.43726869	    -13.80907532	     19.93092289	     19.93092289	     15.21775773	     -6.19668018	     -2.63419346	     28.88893515	     -7.38444660	      2.88356299	     29.45582012	     29.45582012	      8.65428034	    -15.92195557	     10.23939025	     -9.38922915	      3.72449194	      2.17704997	     33.88019636	    -16.06815222	    -14.06237504	     40.43940287	     46.31993278	      0.00000000	      0.00000000	     -5.81406692	     -5.56159411	      0.57628182	     22.20144764	     45.41730494	      0.00000000	      0.00000000
      6.67285714	     -3.62415976	     -3.77085190	      6.40014358	      0.93446069	      0.92615940	      0.51747140	      9.49002671	      3.31680265	    -14.54821893	     19.06469854	     19.06469854	     15.13254573	     -5.47314233	     -3.32165552	     28.87548967	     -6.86196688	      3.01143048	     26.04984929	     26.04984929	      6.44419173	    -13.88471796	      6.14207571	     -9.32354527	      3.63021884	      2.22273912	     35.04189153	    -16.38846526	    -12.92449355	     45.51562365	     46.04694067	      0.00000000	      0.00000000	     -8.09912701	     -5.60367299	      1.62932939	     23.15962524	     45.15196616	      0.00000000	      0.00000000
      6.69114286	     -3.87387127	     -3.79077636	      6.84051100	      0.93284986	      0.92661066	      0.51552131	      8.92270757	      3.31804583	    -14.95105121	     18.03463311	     18.03463311	     15.06847944	     -5.11247478	     -3.31314047	     28.98099451	     -6.41378298	      2.99939005	     23.20098004	     23.20098004	      5.90403703	    -11.05455064	      5.78204968	     -9.11078511	      3.48917883	      2.07042331	     37.25373049	    -16.27645420	    -12.71143979	     47.63054403	     45.96538694	      0.00000000	      0.00000000	     -9.72260758	     -5.48959234	      2.04177008	     22.63986359	     45.04716203	      0.00000000	      0.00000000
      6.70942857	     -4.14122841	     -3.89310815	      7.25681428	      0.93152807	      0.92681460	      0.51344144	      8.35982013	      3.37775787	    -15.48637751	     17.00667327	     17.00667327	     14.96302710	     -4.49232754	     -3.59926080	     29.08092399	     -6.16133992	      2.56397663	     20.68301245	     20.68301245	      5.37460705	     -7.87789114	      4.60966168	     -8.85620689	      3.46041552	      1.99108529	     38.97842516	    -16.29076278	    -12.27990846	     50.82095524	     45.83113149	      0.00000000	      0.00000000	    -11.39924734	     -5.49632542	      2.61003182	     22.88143765	     44.90533265	      0.00000000	      0.00000000
      6.72771429	     -4.41151406	     -3.85803660	      7.62866781	      0.93044469	      0.92699675	      0.51118225	      7.83591517	      3.29944335	    -15.82012497	     16.10999458	     16.10999458	     14.93048445	     -4.16398054	     -3.70434516	     28.95775454	     -5.73096637	      2.17475586	     18.26463040	     18.26463040	      4.97651900	     -5.46309528	      4.26335046	     -8.58597611	      3.22234650	      1.99392621	     40.81635010	    -16.35394416	    -12.06496160	     53.12551683	     45.74596859	      0.00000000	      0.00000000	    -12.71941248	     -5.55102123	      2.91152204	     22.86894743	     44.82411074	      0.00000000	      0.00000000
      6.74600000	     -4.66665676	     -4.03928618	      7.98329700	      0.92967182	      0.92676828	      0.50884427	      7.27823095	      3.45745974	    -16.23150342	     15.13741474	     15.13741474	     14.68855673	     -3.78428822	     -4.57532359	     28.89792228	     -5.60693217	      1.52887572	     16.32074105	     16.32074105	      4.16658666	     -3.23009270	      2.14265904	     -8.33703551	      3.26989714	      2.39744273	     41.60229613	    -17.06152496	    -11.30996929	     57.96589079	     45.54394714	      0.00000000	      0.00000000	    -14.13753936	     -5.90805670	      4.51335281	     24.23112364	     44.52925257	      0.00000000	      0.00000000
